<?xml version="1.0" encoding="utf-8"?>
<!-- Generator: Adobe Illustrator 24.1.2, SVG Export Plug-In . SVG Version: 6.00 Build 0)  -->
<svg version="1.1" id="Camada_1" xmlns="http://www.w3.org/2000/svg" xmlns:xlink="http://www.w3.org/1999/xlink" x="0px" y="0px"
	 viewBox="0 0 96 96" style="enable-background:new 0 0 96 96;" xml:space="preserve">
<style type="text/css">
	.st0{display:none;}
	.st1{display:inline;fill:#FFFFFF;}
	.st2{fill:#FFFFFF;stroke:#FFFFFF;stroke-width:8;stroke-linecap:round;stroke-linejoin:round;stroke-miterlimit:10;}
</style>
<g class="st0">
	<path class="st1" d="M48,0C21.5,0,0,21.5,0,48s21.5,48,48,48s48-21.5,48-48C96,21.5,74.5,0,48,0z M48,84c-19.9,0-36-16.1-36-36
		s16.1-36,36-36s36,16.1,36,36C84,67.9,67.9,84,48,84z"/>
	<path class="st1" d="M66,42H54V30c0-3.3-2.7-6-6-6s-6,2.7-6,6v18c0,3.3,2.7,6,6,6c0,0,0,0,0,0h18c3.3,0,6-2.7,6-6S69.3,42,66,42z"
		/>
</g>
<g>
	<path class="st2" d="M83.3,92.3c-8.8-10.9-22.4-18.2-37.9-18.2S16.3,81.3,7.5,92.3H83.3z"/>
	<path class="st2" d="M27.5,34.7v3H53c-4.8-7.3-12.7-12.1-21.2-12.1s-16.4,4.8-21.2,12.1h10.9L27.5,34.7z"/>
	<path class="st2" d="M34.5,15l-2.1,2.4l18.8,17.3c1.8-9.1-0.6-18.2-7-23.9S28.8,3.4,20,5.9l7.9,7.3L34.5,15z"/>
	<path class="st2" d="M67,27.1l1.5,2.7l22.7-11.5c-7.9-4.2-16.7-5.2-24.6-1.2S54.2,28.6,53.3,37.4l9.7-4.8L67,27.1z"/>
	<path class="st2" d="M50,37.7L50,37.7c3.9,11.5,2.1,23.9-4.5,34.3l-1.5,2.1"/>
	<path class="st2" d="M56,37.7l2.7,4.5c6.1,10.6,7.3,23.3,3.3,34.9l0,0"/>
</g>
</svg>
