<?xml version="1.0" encoding="utf-8"?>
<!-- Generator: Adobe Illustrator 24.1.2, SVG Export Plug-In . SVG Version: 6.00 Build 0)  -->
<svg version="1.1" id="Camada_1" xmlns="http://www.w3.org/2000/svg" xmlns:xlink="http://www.w3.org/1999/xlink" x="0px" y="0px"
	 viewBox="0 0 96 96" style="enable-background:new 0 0 96 96;" xml:space="preserve">
<style type="text/css">
	.st0{fill:#FFFFFF;stroke:#FFFFFF;stroke-width:4;stroke-miterlimit:10;}
</style>
<g>
	<g>
		<path class="st0" d="M67.7,22.2c0-10.7-8.7-19.3-19.3-19.3S29,11.6,29,22.2s8.7,19.3,19.3,19.3S67.7,32.9,67.7,22.2z M37.8,22.2
			c0-5.8,4.7-10.6,10.6-10.6S59,16.3,59,22.2s-4.7,10.6-10.6,10.6S37.8,28.1,37.8,22.2z"/>
		<path class="st0" d="M48.4,43.8c-18.5,0-33.6,15.1-33.6,33.6v5.8c0,5.6,4.6,10.2,10.2,10.2h46.8c5.6,0,10.2-4.6,10.2-10.2v-5.8
			C82,58.9,66.9,43.8,48.4,43.8z M73.2,83.3c0,0.8-0.7,1.5-1.5,1.5H25c-0.8,0-1.5-0.7-1.5-1.5v-5.8c0-13.7,11.1-24.8,24.8-24.8
			s24.8,11.1,24.8,24.8L73.2,83.3L73.2,83.3z"/>
		<path class="st0" d="M76.2,33.6l-6.7,6.6l-2.4-2.4c-1-1-2.7-1-3.8,0c-1,1-1,2.7,0,3.8l4.3,4.3c0.5,0.5,1.2,0.8,1.9,0.8
			c0.7,0,1.3-0.2,1.9-0.8l8.5-8.5c1-1,1-2.7,0-3.8C79,32.5,77.2,32.5,76.2,33.6z"/>
	</g>
</g>
</svg>
