<?xml version="1.0" encoding="utf-8"?>
<!-- Generator: Adobe Illustrator 24.1.2, SVG Export Plug-In . SVG Version: 6.00 Build 0)  -->
<svg version="1.1" id="Layer_1" xmlns="http://www.w3.org/2000/svg" xmlns:xlink="http://www.w3.org/1999/xlink" x="0px" y="0px"
	 viewBox="0 0 800 800" style="enable-background:new 0 0 800 800;" xml:space="preserve">
<style type="text/css">
	.st0{fill:#FFFFFF;}
</style>
<path class="st0" d="M400,0C179.1,0,0,179.1,0,400s179.1,400,400,400s400-179.1,400-400S620.9,0,400,0z M288.1,567.3h-78V317.8h78
	V567.3z M247,286.6h-0.6c-28.3,0-46.6-19.1-46.6-43.3c0-24.7,18.9-43.3,47.7-43.3s46.4,18.6,47,43.3
	C294.7,267.3,276.4,286.6,247,286.6z M600,567.3h-88.4V438.3c0-33.8-13.8-56.9-44.2-56.9c-23.3,0-36.3,15.6-42.2,30.6
	c-2.2,5.3-1.9,12.8-1.9,20.5v134.8h-87.7c0,0,1.1-228.8,0-249.5h87.7V357c5.2-17.2,33.1-41.6,77.8-41.6c55.5,0,98.9,35.9,98.9,113.1
	V567.3z"/>
</svg>
