<?xml version="1.0" encoding="utf-8"?>
<!-- Generator: Adobe Illustrator 24.1.2, SVG Export Plug-In . SVG Version: 6.00 Build 0)  -->
<svg version="1.1" id="Camada_1" xmlns="http://www.w3.org/2000/svg" xmlns:xlink="http://www.w3.org/1999/xlink" x="0px" y="0px"
	 viewBox="0 0 800 800" style="enable-background:new 0 0 800 800;" xml:space="preserve">
<style type="text/css">
	.st0{fill-rule:evenodd;clip-rule:evenodd;fill:#FFFFFF;}
</style>
<path class="st0" d="M800,400c0,220.9-179.1,400-400,400C179.1,800,0,620.9,0,400C0,179.1,179.1,0,400,0C620.9,0,800,179.1,800,400z
	 M414.3,295.3c-38.9,16.2-116.7,49.7-233.3,100.5c-18.9,7.5-28.9,14.9-29.8,22.1c-1.5,12.2,13.7,17,34.5,23.5
	c2.8,0.9,5.7,1.8,8.7,2.8c20.4,6.6,47.9,14.4,62.2,14.7c13,0.3,27.4-5.1,43.4-16c109-73.5,165.2-110.7,168.7-111.5
	c2.5-0.6,5.9-1.3,8.3,0.8c2.3,2.1,2.1,6,1.9,7.1c-1.5,6.4-61.3,62.1-92.3,90.9c-9.7,9-16.5,15.3-17.9,16.8c-3.1,3.3-6.3,6.3-9.4,9.3
	c-19,18.3-33.2,32,0.8,54.4c16.3,10.8,29.4,19.7,42.4,28.5c14.2,9.7,28.4,19.4,46.8,31.4c4.7,3.1,9.2,6.3,13.5,9.4
	c16.6,11.8,31.5,22.4,49.9,20.7c10.7-1,21.7-11,27.3-41c13.3-70.8,39.3-224.3,45.3-287.6c0.5-5.5-0.1-12.6-0.7-15.7
	c-0.5-3.1-1.6-7.5-5.7-10.8c-4.8-3.9-12.2-4.7-15.5-4.7C548.5,241.1,525.4,249.1,414.3,295.3z"/>
</svg>
