<?xml version="1.0" encoding="utf-8"?>
<!-- Generator: Adobe Illustrator 24.1.2, SVG Export Plug-In . SVG Version: 6.00 Build 0)  -->
<svg version="1.1" id="Icons" xmlns="http://www.w3.org/2000/svg" xmlns:xlink="http://www.w3.org/1999/xlink" x="0px" y="0px"
	 viewBox="0 0 800 800" style="enable-background:new 0 0 800 800;" xml:space="preserve">
<style type="text/css">
	.st0{fill:#FFFFFF;}
</style>
<path class="st0" d="M400,0C192.5,0,25,167.5,25,375c0,85,27.5,165,80,230L52.5,765c-2.5,10,0,20,7.5,27.5c2.5,5,10,7.5,15,7.5
	c2.5,0,7.5,0,10-2.5L257.5,720c45,20,92.5,30,142.5,30c207.5,0,375-167.5,375-375S607.5,0,400,0z M617.5,512.5c-10,30-47.5,55-80,60
	c-7.5,2.5-15,2.5-25,2.5c-20,0-50-5-102.5-27.5c-60-25-120-77.5-167.5-145V400c-15-22.5-42.5-65-42.5-110c0-55,27.5-82.5,37.5-95
	c12.5-12.5,30-20,50-20c5,0,7.5,0,12.5,0c17.5,0,30,5,42.5,30l10,20c7.5,20,17.5,42.5,20,45c7.5,15,7.5,27.5,0,40
	c-2.5,7.5-7.5,12.5-12.5,17.5c-2.5,5-5,7.5-7.5,7.5c-2.5,2.5-2.5,2.5-5,5c7.5,12.5,22.5,35,42.5,52.5c30,27.5,52.5,35,65,40l0,0
	c5-5,10-15,17.5-22.5l2.5-5c12.5-17.5,32.5-22.5,52.5-15c10,5,65,30,65,30l5,2.5c7.5,5,17.5,7.5,22.5,17.5
	C630,462.5,622.5,495,617.5,512.5z"/>
</svg>
