<?xml version="1.0" encoding="utf-8"?>
<!-- Generator: Adobe Illustrator 24.1.2, SVG Export Plug-In . SVG Version: 6.00 Build 0)  -->
<svg version="1.1" id="Camada_1" xmlns="http://www.w3.org/2000/svg" xmlns:xlink="http://www.w3.org/1999/xlink" x="0px" y="0px"
	 viewBox="0 0 96 96" style="enable-background:new 0 0 96 96;" xml:space="preserve">
<style type="text/css">
	.st0{fill:#FFFFFF;}
</style>
<g>
	<path class="st0" d="M48,0C21.5,0,0,21.5,0,48s21.5,48,48,48s48-21.5,48-48C96,21.5,74.5,0,48,0z M48,84c-19.9,0-36-16.1-36-36
		s16.1-36,36-36s36,16.1,36,36C84,67.9,67.9,84,48,84z"/>
	<path class="st0" d="M66,42H54V30c0-3.3-2.7-6-6-6s-6,2.7-6,6v18c0,3.3,2.7,6,6,6c0,0,0,0,0,0h18c3.3,0,6-2.7,6-6S69.3,42,66,42z"
		/>
</g>
</svg>
