<?xml version="1.0" encoding="utf-8"?>
<!-- Generator: Adobe Illustrator 24.1.2, SVG Export Plug-In . SVG Version: 6.00 Build 0)  -->
<svg version="1.1" id="Camada_1" xmlns="http://www.w3.org/2000/svg" xmlns:xlink="http://www.w3.org/1999/xlink" x="0px" y="0px"
	 viewBox="0 0 1280 320" style="enable-background:new 0 0 1280 320;" xml:space="preserve">
<style type="text/css">
	.st0{fill:#FFFFFF;}
</style>
<g>
	<g>
		<path class="st0" d="M156.5,159.3c0-26-0.1-52,0-78.1C156.5,66,159.6,63,174.7,63c21.6,0,43.3-0.3,64.9,0.1
			c32.3,0.6,49.8,15.6,53.7,47.5c1.6,12.9,1.6,26.4-0.1,39.4c-4.1,31.5-21.4,46.1-53.2,46.9c-9.4,0.2-18.8,0.3-28.2,0
			c-7.2-0.2-10.3,2.6-10.1,9.9c0.3,11,0.2,21.9,0,32.9c-0.3,13.2-3.9,16.8-16.7,17.4c-26.1,1.2-28.4-1-28.4-27.2
			C156.5,206.3,156.5,182.8,156.5,159.3z M201.7,129.7c0,0.9,0,1.9,0,2.8c0.2,25.5-2.8,22.7,22.5,22.8c26.1,0.1,26.4-0.3,26.3-27
			c-0.1-22.8-1-23.9-23.9-23.7C198,104.8,202.1,100.9,201.7,129.7z"/>
		<path class="st0" d="M70.3,113.8c15.7,0,31.4-0.2,47.1,0c14.9,0.2,22.2,7.3,22.3,21.9c0.2,30.8,0.2,61.5,0,92.3
			c-0.1,14.2-7.4,21.5-21.6,21.6c-32,0.2-64,0.2-96,0c-14.6-0.1-21.8-7.5-21.8-22.4c-0.2-30.4-0.2-60.9,0-91.3
			c0.1-14.8,7.3-21.9,22.1-22.1C38.3,113.6,54.3,113.8,70.3,113.8z M60.4,166.3c-4.5,21,12,30,24.2,40.9c1.9,1.7,8.6,1.1,10.5-0.9
			c1.9-1.9,2-9,0.2-10.4C81.5,185,76.6,171,78.9,154c0.1-0.6,0.1-1.5-0.3-1.8c-2.7-2.6-5.8-7.2-8.3-7c-3.3,0.3-7.6,4-8.9,7.3
			C59.8,156.5,60.6,161.7,60.4,166.3z"/>
		<path class="st0" d="M300.3,178.2c1.2-14,1.4-28.2,3.8-42c3.1-17.8,15.1-28.3,32.3-32.9c19.7-5.3,39.6-5.6,59.5-1.1
			c25.5,5.9,38.2,20.9,39.1,47.2c0.6,19.7,0.7,39.6,0,59.3c-0.9,26.2-13.8,41.1-39.3,47c-17.7,4-35.4,4.1-53.1,0.4
			c-26.7-5.6-40.5-22.2-41.1-49.6c-0.2-9.4,0-18.8,0-28.2C301.1,178.2,300.7,178.2,300.3,178.2z M391.7,179.8
			C391.7,179.8,391.7,179.8,391.7,179.8c0.1-3.8,0.1-7.5,0.1-11.3c0-27.4-5.5-31.8-33.2-27.8c-9,1.3-13.5,5.7-13.5,14.7
			c0,11.3-0.1,22.5-0.1,33.8c0,27,4.3,30.8,31.5,27.9c1.2-0.1,2.5-0.4,3.7-0.6c7.8-1,11.6-5.4,11.5-13.3
			C391.6,195.5,391.7,187.7,391.7,179.8z"/>
		<path class="st0" d="M826.2,179.3c-1.3,14.3-1.5,28.8-4,42.9c-3.1,17.5-15,27.7-31.8,32.3c-19.7,5.4-39.6,5.8-59.5,1.3
			c-25.3-5.7-38.8-21.9-39.5-47.9c-0.5-19.1-0.5-38.3,0-57.4c0.7-27.1,13.6-42.5,40-48.4c18-4,36.1-4,54.1,0.1
			c25.9,5.9,38.5,21.2,39.5,47.9c0.4,9.7,0.1,19.5,0.1,29.2C825.4,179.2,825.8,179.2,826.2,179.3z M781.4,179.7
			C781.4,179.7,781.5,179.7,781.4,179.7c0.1-3.4,0.1-6.9,0.1-10.3c0-28.3-5.4-32.7-33.3-28.7c-9,1.3-13.4,5.8-13.4,14.8
			c0,11.3-0.1,22.5-0.1,33.8c0,27,3.6,30.2,30.6,27.8c1.9-0.2,3.7-0.6,5.6-0.9c7-1,10.4-5.2,10.5-12.2
			C781.5,196,781.4,187.9,781.4,179.7z"/>
		<path class="st0" d="M1280,179.3c-1.3,14.3-1.5,28.8-4,42.9c-3.1,17.5-15,27.7-31.8,32.3c-19.7,5.4-39.6,5.8-59.5,1.3
			c-25.3-5.7-38.8-21.9-39.5-47.9c-0.5-19.1-0.5-38.3,0-57.4c0.7-27.1,13.6-42.5,40-48.4c18-4,36.1-4,54.1,0.1
			c25.9,5.9,38.5,21.2,39.5,47.9c0.4,9.7,0.1,19.5,0.1,29.2C1279.2,179.2,1279.6,179.2,1280,179.3z M1235.2,179.8
			C1235.2,179.8,1235.3,179.8,1235.2,179.8c0.1-3.8,0.1-7.5,0.1-11.3c0-27.3-5.6-31.7-33.3-27.7c-9,1.3-13.4,5.8-13.4,14.8
			c0,11.3-0.1,22.5-0.1,33.8c0,27,3.6,30.2,30.6,27.9c1.9-0.2,3.7-0.6,5.6-0.9c7-1,10.4-5.2,10.5-12.2
			C1235.3,196,1235.2,187.9,1235.2,179.8z"/>
		<path class="st0" d="M453.8,178.6c0-19.5-0.3-38.9,0.2-58.4c0.2-5.8,1.7-15.7,4.5-16.4c7.9-2,17.7-2.3,25,0.8
			c5.9,2.5,9.8,2.1,15.4,1.1c14-2.6,28.5-6.6,42.3-5.3c29.1,2.9,41.6,17.4,42.5,46.5c0.9,32,0.2,64,0.2,96c0,8.3-4.2,12.8-12.3,13.7
			c-1.6,0.2-3.1,0.3-4.7,0.4c-23.9,1-26.4-1.4-26.5-25.2c0-24.2,0.1-48.3-0.1-72.5c-0.1-17.2-3.6-20.2-20.9-18.8
			c-0.9,0.1-1.9,0.2-2.8,0.3c-18.9,2.7-19.3,3.1-19.3,22.3c0,25.4,0.1,50.8,0,76.2c-0.1,13.7-3.6,17.1-17.3,17.6
			c-24.6,0.9-26.2-0.6-26.2-24.8C453.8,214.3,453.8,196.5,453.8,178.6z"/>
		<path class="st0" d="M999.9,178.3c0-19.5,0-38.9,0-58.4c0-17.7,14.1-26.1,29.1-16c6.5,4.4,11,2.4,17.1,1.4
			c13.7-2.4,27.9-6.2,41.5-4.8c28.7,3,41.2,16.9,42.1,45.8c1.1,32.3,0.3,64.6,0.3,96.9c0,8.4-4.5,12.6-12.6,13.5
			c-1.9,0.2-3.8,0.3-5.6,0.4c-22.9,0.6-25.2-1.7-25.2-24.5c0-24.5,0.1-49-0.1-73.4c-0.1-16.8-3.4-19.7-20.2-18.6
			c-1.6,0.1-3.1,0.3-4.7,0.5c-18,2.9-18.1,3.1-18.1,21.4c0,25.7,0.1,51.5,0,77.2c-0.1,13.2-3.6,16.7-16.6,17.4
			c-25,1.2-26.9-0.6-26.9-25.1C999.9,214.1,999.9,196.2,999.9,178.3z"/>
		<path class="st0" d="M663,257.2c-2.8,0-5.6,0.1-8.5,0c-31.3-1.1-47.3-17-48-48.3c-0.4-18.8-0.3-37.6,0-56.4
			c0.1-7.8-1.3-12.7-10.7-12.2c-8.5,0.5-11.6-5.2-11.7-12.7c-0.1-7.5-0.8-16.6,9.4-17.7c12-1.3,13.9-8.1,13-18.1
			c-0.5-5.9-0.2-11.9,0.1-17.9c0.3-6.7,4-10.3,10.7-10.8c0.6,0,1.3-0.1,1.9-0.1c29.8-0.1,32-2.6,30.7,27.6
			c-0.3,8,3.4,10.1,10.7,10.2c25.1,0.3,26.1,1.8,25.2,27.2c-0.3,8.3-4.1,12-12,12.3c-4.7,0.1-9.4,0.4-14.1,0.1
			c-7.4-0.5-9.9,3-9.8,10.1c0.3,17.6,0,35.1,0.1,52.7c0.1,11.2,2.9,13.9,13.8,14.3c0.3,0,0.6,0,0.9,0c21.1,0.5,28.2,10.1,21.6,30.5
			c-1.2,3.8-6.3,7.2-10.4,8.8C672.2,258.2,667.4,257.1,663,257.2C663,257.1,663,257.1,663,257.2z"/>
		<path class="st0" d="M843.6,178.7c0-19.5-0.3-38.9,0.2-58.4c0.2-5.8,1.6-15.8,4.3-16.5c7.9-2,17.7-2.4,25,0.6
			c5.9,2.4,9.5,2.7,15.1,0.6c7.8-3,16.2-5.1,24.5-5.9c10.5-1.1,15.1,3.6,15.7,14c0.2,2.8,0.1,5.6,0.1,8.5
			c-0.1,16.3-2,18.2-18.3,18.8c-1.9,0.1-3.8,0.2-5.6,0.4c-16.4,2.3-17.5,3.5-17.5,20.2c0,25.7,0,51.5,0,77.2c0,15-3.4,18.4-18,18.8
			c-24.1,0.7-25.5-0.7-25.5-24.6C843.6,214.5,843.6,196.6,843.6,178.7z"/>
		<path class="st0" d="M934,178.4c0-21-0.1-42,0-63.1c0-10.9,2.4-13.4,12.8-14.4c27-2.6,30.8,0.8,30.8,27.6c0,36.7,0,73.4,0,110.1
			c0,14.7-3.5,18.1-18.4,18.4c-23.7,0.6-25.1-0.8-25.1-24.1C934,214.8,934,196.6,934,178.4z"/>
		<path class="st0" d="M69.7,95.2c-10.7,0-21.3-0.1-32,0.1c-6.9,0.1-9.7-2.4-8.5-9.7c2.3-13.8,8.4-20,22.4-20.6
			c12.2-0.5,24.5-0.5,36.7,0c13.9,0.6,20.1,7,22.2,20.9c1,6.7-1.3,9.4-7.9,9.3C91.7,95.1,80.7,95.2,69.7,95.2z"/>
		<path class="st0" d="M934,73.3c0-23.5,0-23.5,22.5-23.5c19,0,21.1,2.4,21.1,23.1c0,22.5-1.6,24.2-23.9,24
			C934.9,96.9,934,95.8,934,73.3z"/>
	</g>
</g>
</svg>
