<?xml version="1.0" encoding="utf-8"?>
<!-- Generator: Adobe Illustrator 24.1.2, SVG Export Plug-In . SVG Version: 6.00 Build 0)  -->
<svg version="1.1" id="Camada_2" xmlns="http://www.w3.org/2000/svg" xmlns:xlink="http://www.w3.org/1999/xlink" x="0px" y="0px"
	 viewBox="0 0 1280 1280" style="enable-background:new 0 0 1280 1280;" xml:space="preserve">
<style type="text/css">
	.st0{fill:#343434;}
</style>
<g>
	<g>
		<path class="st0" d="M619.1,546.2c0-1.7,0-2.7,0-3.7c0-32.6,0.2-65.2,0.1-97.8c0-10.9-0.4-21.9-0.8-32.8c-0.1-2.3,0.8-3.4,2.9-4
			c16.9-4.6,33.7-9.2,50.5-13.8c0.8-0.2,1.6-0.3,2.4-0.5c2.4-0.6,3.3,0.6,3.4,2.7c0.1,1.6,0.2,3.1,0.2,4.7
			c-0.5,32.4-1.1,64.8-1.6,97.1c-0.1,4.1-0.4,8.1-0.4,12.2c0,1.3,0.6,3.1,1.5,3.7c0.6,0.5,2.5-0.3,3.6-0.9
			c10.8-5.4,21.6-10.8,32.4-16.2c1-0.5,2.2-0.9,3.3-0.8c3.7,0.1,4.4-1.9,4.3-5.2c-0.5-24.7-1-49.4-1.3-74c-0.1-8.6,0-17.3,0.2-25.9
			c0-1,1.2-2.6,2.1-2.8c15.6-4.2,31.2-8.2,46.8-12.1c5.6-1.4,6.7-0.5,6.7,5.4c0,20.3,0,40.6-0.1,60.9c-0.1,10.3-0.5,20.6-0.8,30.9
			c-0.1,2.3,0.7,3.5,3.3,3.1c6.7-1,13.4-1.8,20.1-3c2-0.4,3.8-1.9,5.5-3.3c9-7.4,15.7-16.8,23.1-25.8c12.1-14.7,24.7-28.9,37.1-43.4
			c4.8-5.6,9.3-11.4,14.2-17c1.1-1.2,3.2-2.3,4.8-2.3c14.8-0.1,29.6,0,44.4,0.3c1.8,0,3.6,1,5.5,1.5c-0.8,1.7-1.3,3.7-2.5,5.1
			c-12.9,14.9-25.9,29.8-39,44.7c-9.1,10.4-18.4,20.7-27.5,31.1c-0.8,0.9-1.1,2.1-1.6,3.2c1.3,0.5,2.5,1.4,3.9,1.5
			c14.7,1.3,29.5,2.5,44.2,3.9c5.7,0.6,11-0.2,15.6-3.8c6.6-5.1,13.2-10.1,19.5-15.5c8.7-7.4,17.4-14.9,25.8-22.6
			c9-8.2,17.8-16.6,26.6-25c3-2.9,5.9-5.9,9-8.6c1-0.8,2.7-1.2,4-1.1c8.3,0.8,16.5,1.8,24.8,2.8c6.1,0.7,12.2,1.3,18.3,2
			c0.7,0.1,1.3,0.4,2.5,0.7c-1.1,1.3-1.9,2.3-2.8,3.2c-12.5,12.4-24.7,25-37.4,37.1c-11.5,11-23.3,21.7-35.3,32.1
			c-4.1,3.5-9.4,5.6-14.2,8.4c-0.7,0.4-1.6,0.6-2.3,1.1c-2.1,1.3-2.2,2.9,0.1,3.9c2.1,0.9,4.6,1.4,6.9,1.7c4.6,0.7,9.3,1.2,13.9,1.9
			c8.4,1.4,16.7,0.6,24.7-1.8c16.2-4.8,32.3-10.3,48.5-15.4c11.9-3.8,23.9-7.4,35.8-11.1c14.8-4.5,29.7-9.1,44.6-13.4
			c8-2.3,16.1-4.2,24.2-6.1c0.8-0.2,1.7,0,3,0c-2.7,4.1-5.1,7.9-7.6,11.5c-5.7,7.9-11.3,15.9-17.3,23.6c-6.2,8-14.4,13.5-24.2,16.3
			c-18,5.2-36,10.5-54.1,15.4c-15.4,4.2-30.8,8.2-46.3,11.5c-8.7,1.9-17.5,1.4-26.1-1.7c-16.7-5.9-33.4-11.8-50.4-16.7
			c-21.6-6.2-43.6-9.9-66-11.7c-18.6-1.4-37,0.1-55.4,2.8c-27.9,4.1-54.9,11.4-80.8,22.3c-30.2,12.7-59.2,27.8-84.7,48.8
			c-6.5,5.3-12.6,11.2-19,16.6c-5.9,5-12.1,9.5-17.9,14.6c-14.2,12.7-27.9,25.9-40,40.7c-6.7,8.1-14,15.6-21.1,23.3
			c-2.4,2.6-4.5,2.4-7.7,0.1c-5.2-3.7-7.8-8.8-8.8-14.9c-0.7-4.3-1.2-8.7-1.2-13c-0.2-48-0.2-96-0.5-144.1
			c-0.1-17.8-0.6-35.6-0.9-53.4c0-0.1,0-0.2,0-0.3c-0.1-1.8-0.8-4.1,0-5.2c1-1.2,3.4-1.2,5.2-1.7c11.1-3.3,22.1-6.7,33.2-9.8
			c3.6-1,7.3-1.8,11-2.3c4.9-0.7,6.8,0.5,7.1,5.4c0.4,9.1,0.3,18.3,0.3,27.5c0.2,33.6,0.4,67.3,0.5,100.9c0,6.2-0.2,12.5-0.1,18.7
			c0,1.4,0.6,2.9,1,4.3c1.5-0.6,3.2-0.8,4.4-1.7c8.5-6.5,16.9-13.2,25.2-19.9c5.2-4.3,10.2-8.8,15.3-13.3c0.4-0.3,0.8-0.7,1.1-1.1
			c0.9-1.4,3-2.8,1.3-4.5c-0.6-0.6-3.1,0.1-4.2,0.9c-4.6,3.1-9,6.4-13.4,9.7C622.2,544.2,620.9,544.9,619.1,546.2z"/>
		<path class="st0" d="M620.7,831c-0.3-10,0.3-19.3-0.9-28.4c-0.5,0-0.9-0.1-1.4-0.1c-0.2,1.2-0.5,2.4-0.5,3.6
			c0,7.7-0.1,15.4,0,23.1c0,1.9-0.6,2.7-2.5,3.2c-27.1,7.1-54.2,14.3-81.3,21.3c-14.4,3.7-28.1,2.6-40.5-6.5
			c-6.3-4.6-10.3-11-13.2-17.9c-3.3-7.9-5.8-16.2-8.5-24.4c-1.7-5.2-3.4-10.5-4.6-15.8c-1.5-7-2.4-13.9,1.4-20.9
			c5.2-9.4,10.1-18.9,17.3-27c2.8-3.2,5.9-5.7,10.1-7c17.7-5.5,35.3-11.3,53-16.8c18.9-5.9,37.8-11.6,56.7-17.4
			c0.1,0,0.2-0.1,0.3-0.1c5.4-1.8,5.9-1.5,5.9,4.1c0.1,8.1-0.1,16.3,0.2,24.4c0.1,3.6-1.3,5.7-4.4,7c-9.9,4.1-20,7.6-30.6,9.6
			c-1.8,0.3-3.6,0.8-5.3,1.9c8.2-1.5,16.5-2.9,25-4.4c0.3,1.1,0.6,2,0.7,2.9c0.4,6.6,0.8,13.3,1.1,20c0.3,5.1-0.3,6.4-5.2,7.9
			c-16.5,4.9-33,9.5-49.5,14.2c-8,2.3-16.1,4.2-24.1,6.4c-4.3,1.2-4.6,2.1-3,6.2c3.3,8.6,8.8,15.1,17,19.6c4.7,2.6,9.6,2.9,14.5,1.5
			c18.5-5.4,36.9-11,55.3-16.4c4.8-1.4,9.6-2.8,14.4-4c2.4-0.6,2.2-2.2,2.2-3.8c-0.1-8.4-0.3-16.9-0.2-25.3
			c0.1-11.1,0.4-22.3,0.5-33.4c0.1-5.1-0.9-10.4,0.4-15.1c3-11.6,8.1-22.5,17.1-30.9c2.8-2.6,6.6-4.5,10.3-5.6
			c27.2-7.9,54.3-15.8,81.7-23c10.4-2.7,19.9,1.3,28.4,7.5c4,2.9,5.6,7.6,6.6,12.1c2.1,9.5,2.6,19.2,1.4,28.9
			c-1.3,10.9-6.9,19.9-13.5,28.3c-5.9,7.5-13.8,12.1-22.7,14.7c-15.9,4.7-31.8,9-47.8,13.4c-2.8,0.8-5.7,1.1-8.6,1.7
			c-4,0.9-4.3,1.3-4.2,5.5c0,2.5,0.1,5,0,7.5c-0.2,3.4,0.4,4.1,3.9,3.4c4.4-0.9,8.7-1.9,13.1-3.1c22.3-6.1,44.6-12.2,66.8-18.6
			c13.4-3.9,26.6-8.4,39.9-12.6c2.5-0.8,3.4-2.5,3.2-5c-0.5-8-1.2-16-1.2-24c0.1-13.9,0.4-27.9,1.1-41.8c0.8-15.6,7.4-29,17.3-40.9
			c0.6-0.7,1.7-1.3,2.6-1.6c8.2-2.9,16.3-6.2,24.7-8.6c16.8-4.8,33.8-9,50.6-13.7c12-3.3,27.1,1.2,33,15c3.8,8.9,7.5,17.8,11.2,26.7
			c0.5,1.2,0.7,2.6,0.7,4c0.1,12.2,0.2,24.4,0.1,36.6c0,2.1-0.7,4.3-0.8,6.4c0,1.3,0.9,2.7,1,4c0.6,6.4,1.2,12.8,1.7,19.2
			c0.2,2.4,0,4.8,0.1,7.2c0,2.4-1.2,3.6-3.4,4.1c-12.6,3.3-25.1,6.7-37.7,10.1c-2.4,0.6-4.8,1.4-7.3,1.9c-3.6,0.7-4.4,0.2-4.8-3.3
			c-0.4-3.1-0.6-6.2-0.6-9.3c-0.1-17.7,0.1-35.4-0.3-53.1c-0.2-7-1.6-14-2.8-20.9c-0.7-3.8-4.7-6.7-9-7c-6.8-0.5-13.2,1.2-19.2,4.5
			c-4.6,2.6-5,7.2-5.1,11.7c-0.2,14.8-0.3,29.6-0.3,44.4c0,12.8,0.1,25.6,0,38.4c0,6.8-0.2,7.3-6.8,9.3
			c-14.2,4.4-28.5,8.5-42.8,12.7c-22.6,6.7-45.2,13.7-67.9,20.2c-23.5,6.7-47.2,13-70.8,19.5c-8.7,2.4-17.5,4.8-26.1,7.4
			C629.7,827.7,625.6,829.3,620.7,831z M720.5,714.4c0-0.7-0.1-1.5-0.1-2.2c-0.4-6.2-1.6-7.4-7.9-7.3c-1.9,0-3.9,0-5.6,0.6
			c-11.4,4-22.7,8-34.1,12.2c-2.2,0.8-3.1,2.6-3.1,4.9c0,3.1,0,6.3-0.4,9.4c-0.6,4.3,0.1,5.5,4.2,4.3c13.6-3.8,27.2-7.8,40.6-12.1
			C719.8,722.4,720.6,720.3,720.5,714.4z"/>
		<path class="st0" d="M428.4,578c0,13.6-0.1,27.3,0.1,40.9c0,3.7-1.4,5.9-4.8,7.1c-13.8,4.6-27.6,9.2-41.5,13.8
			c-0.1,0-0.2,0-0.3,0.1c-7.1,1.5-7.9,0.9-7.9-6.2c-0.1-19.7-0.1-39.4-0.2-59.1c0-1.5,0-3-0.3-4.3c-1.8-6.7-3.4-8.1-10.2-6.5
			c-8.6,2.1-17,4.9-25.4,7.5c-2.5,0.8-3.1,2.7-3.1,5.1c0,9.4-0.2,18.8-0.1,28.1c0.1,9.3-1.9,18.1-5.7,26.6
			c-5.2,11.7-11.9,22.4-20.5,31.8c-4.4,4.9-9.9,8.4-16.1,10.3c-16.8,5.2-33.6,10.5-50.5,15.3c-12.5,3.6-25.2,6.7-37.8,9.6
			c-10.3,2.4-20.7,2.1-30.8-1.7c-6.2-2.3-12.5-4.6-18.5-7.4c-3.5-1.7-6.6-4.3-9.6-6.8c-2.7-2.3-4.2-5.4-4.2-9.1c0-5-0.2-10-0.2-15
			c-0.1-16.7,0-33.5-0.2-50.2c0-4.3,1.9-7,5.7-8.2c10-3.3,19.9-6.8,30-9.7c23.1-6.7,46.3-13.1,69.4-19.6c8.7-2.4,17.5-4.7,26.2-7
			c2.7-0.7,3.7-2.2,3.6-4.9c-0.7-21.6-1.2-43.3-1.9-65c-0.2-5.2-0.2-5,4.9-6.4c16.2-4.3,32.3-8.8,48.5-13.2c0.6-0.2,1.2-0.3,1.8-0.5
			c3.9-1,4.2-0.8,4.2,3.1c0,15.7,0,31.5,0,47.2c0,4,0.4,4.5,4.3,3.5c13.5-3.5,27-7,40.4-10.6c11.6-3.2,23.2-2.4,34.6,0
			c10.1,2.2,16.2,10.4,16.2,20.6C428.5,550.9,428.4,564.5,428.4,578C428.4,578,428.4,578,428.4,578z M203.8,637.8c0,6.7,0,13.3,0,20
			c0,4.7,1,5.5,5.6,4.2c8.8-2.5,17.7-4.8,26.4-7.6c13.3-4.4,26.5-9.2,39.8-13.9c0.7-0.2,1.4-1.5,1.4-2.3c-0.3-13.5-0.6-27-1.1-40.6
			c-0.1-3.9-0.9-4.5-4.7-3.9c-5.7,1-11.4,2.3-17,3.8c-14.8,4.1-29.6,8.5-44.4,12.7c-5.2,1.5-6,2.5-6,7.8
			C203.8,624.6,203.8,631.2,203.8,637.8z"/>
		<path class="st0" d="M299.1,814.6c0-24.8,0.1-49.6,0-74.4c0-8.6-0.5-17.3-1.1-25.9c-0.3-5-1.2-9.9-1.8-14.8c-0.1-1.2,0-2.4,0-3.6
			c1.3,0.2,2.6,0.2,3.8,0.7c5,2.1,9.8,4.6,14.8,6.6c2.3,0.9,4.8,1.4,7.2,1.9c1.9,0.3,3.3-0.6,3.6-2.6c0.4-3.4,2.3-3.1,4.4-1.8
			c5.5,3.5,11,7.1,16.5,10.7c11.7,7.6,21.5,17.4,31.6,26.9c3.8,3.6,7.8,6.9,11.8,10.2c0.9,0.7,2.5,1.3,3.4,1
			c0.8-0.3,1.2-1.9,1.5-3.1c0.3-0.9,0.2-1.9,0.2-2.8c-0.6-21.7-1.2-43.5-1.9-65.2c-0.2-5.6-0.5-11.2-0.8-16.8
			c-0.2-3.2,1.2-5,4.3-5.9c15.4-4.8,30.8-9.7,46.2-14.4c3-0.9,6.3-0.9,9.5-1.1c1.9-0.1,2.8,1,2.8,2.9c0.2,6.2,0.8,12.5,0.8,18.7
			c0.1,22.7,0.3,45.4,0,68.1c-0.3,20.5-1.4,41-1.6,61.5c-0.2,16.9,0.2,33.7,0.4,50.6c0.2,11.9,0.4,23.7,0.8,35.6
			c0.1,3.2-1.1,5.3-3.8,6.5c-4.9,2.1-9.7,4.4-14.8,5.9c-12.1,3.5-24.3,6.6-36.5,9.9c-0.9,0.2-1.8,0.4-2.8,0.5
			c-3.4,0.3-4.1-0.3-4.1-3.7c-0.1-11,0-22.1-0.3-33.1c-0.3-13.8-0.7-27.7-1.5-41.5c-0.7-10.8-3.5-21.2-7.4-31.4
			c-2.9-7.7-4.1-16.1-6.1-24.1c-1.2-4.7-2.3-9.5-4.2-14c-1.9-4.4-5.4-4.2-7.5,0.1c-3,6.2-3.7,13-3.8,19.8
			c-0.2,34.6-0.2,69.1-0.3,103.7c0,5.9-0.1,5.8-5.6,7.7c-14.5,4.8-29,9.8-43.5,14.6c-2,0.7-4.3,1-6.4,1.1c-5.7,0.4-6.9-0.7-7.1-6.3
			c-0.2-5.6-0.3-11.2-0.3-16.9c0-20.5,0-41,0-61.5C299.3,814.6,299.2,814.6,299.1,814.6z"/>
		<path class="st0" d="M986.9,578.2c0.4,6,0.7,12,1.4,18c0.5,5.2,3.2,9.6,6.4,13.7c7.8,9.9,17.7,17.6,27.9,24.8
			c14.5,10.2,29.1,20.1,43.8,29.9c3.4,2.3,7.4,3.7,11,5.7c1.1,0.6,2.4,1.8,2.4,2.9c0.3,6.6,0.5,13.3,0.2,19.9
			c-0.1,1.6-2.1,3.8-3.7,4.5c-6.9,2.9-13.8,5.8-21,8c-19.1,5.7-38.4,11.1-57.6,16.6c-14.9,4.2-29.9,8.4-44.8,12.6
			c-1.9,0.5-3.7,1.4-5.6,1.9c-2,0.6-3.5-0.1-3.4-2.3c0.2-7.7,0.6-15.3,0.9-23c0-0.1,0.1-0.2,0.1-0.3c-0.9-6.9,3.2-8.3,8.9-9.7
			c15.8-3.8,31.4-8.4,47-12.7c0.9-0.2,2-0.4,2.6-1c1.7-1.6,4.1-3.2,4.7-5.3c0.8-2.7-2.1-4-4.2-5c-16.9-8.2-30.7-20.1-42.6-34.5
			c-5.6-6.8-8.6-14.7-11.9-22.6c-1.9-4.6-3.4-9.4-4.5-14.2c-0.8-3.6-1.3-7.5-0.8-11.1c1-6.7,2.8-13.2,4.2-19.8
			c0.5-2.1,1.8-3.3,4-3.9c10.2-2.7,20.5-5.6,30.7-8.4c4-1.1,4.3-0.7,4.3,3.3c0,4.1,0,8.1,0,12.2
			C987.2,578.2,987.1,578.2,986.9,578.2z"/>
		<path class="st0" d="M510.3,546.4c0,13.7,0,27.5,0,41.2c0,4.9-1.8,9.3-4.3,13.5c-4.5,7.5-9.3,14.8-15.8,20.8
			c-8.4,7.6-18.2,10.1-29.3,7.9c-5.4-1.1-7-2.8-7.2-8.2c-0.3-12.5-0.4-25-0.5-37.5c-0.1-15.5,0-31-0.1-46.5c0-9.2-0.1-18.3-0.1-27.5
			c0-5.4,0.2-5.9,5.3-7.1c12.5-3,25.1-6.1,37.7-8.8c6.7-1.4,8.8-0.1,11.4,6.1c1.2,2.8,2.1,6,2.2,9c0.2,12.4,0.1,24.8,0.1,37.2
			C510,546.4,510.2,546.4,510.3,546.4z"/>
	</g>
</g>
</svg>
