<?xml version="1.0" encoding="utf-8"?>
<!-- Generator: Adobe Illustrator 24.1.2, SVG Export Plug-In . SVG Version: 6.00 Build 0)  -->
<svg version="1.1" id="Icons" xmlns="http://www.w3.org/2000/svg" xmlns:xlink="http://www.w3.org/1999/xlink" x="0px" y="0px"
	 viewBox="0 0 24 24" style="enable-background:new 0 0 24 24;" xml:space="preserve">
<style type="text/css">
	.st0{fill:#68FF00;}
</style>
<path class="st0" d="M16,2v1H8V2c0-1.1,0.9-2,2-2h4C15.1,0,16,0.9,16,2z"/>
<path class="st0" d="M16,21v1c0,1.1-0.9,2-2,2h-4c-1.1,0-2-0.9-2-2v-1H16z"/>
<path class="st0" d="M17,5H7C5.9,5,5,5.9,5,7v10c0,1.1,0.9,2,2,2h10c1.1,0,2-0.9,2-2V7C19,5.9,18.1,5,17,5z M14.7,14.7
	c-0.4,0.4-1,0.4-1.4,0l-2-2C11.1,12.5,11,12.3,11,12V9c0-0.6,0.4-1,1-1s1,0.4,1,1v2.6l1.7,1.7C15.1,13.7,15.1,14.3,14.7,14.7z"/>
</svg>
