<?xml version="1.0" encoding="utf-8"?>
<!-- Generator: Adobe Illustrator 24.1.2, SVG Export Plug-In . SVG Version: 6.00 Build 0)  -->
<svg version="1.1" id="Camada_3" xmlns="http://www.w3.org/2000/svg" xmlns:xlink="http://www.w3.org/1999/xlink" x="0px" y="0px"
	 viewBox="0 0 1280 1280" style="enable-background:new 0 0 1280 1280;" xml:space="preserve">
<style type="text/css">
	.st0{fill:#343434;}
</style>
<g>
	<g>
		<path class="st0" d="M381.5,647.1c0-60.6,0-121.2-0.1-181.9c0-4.3,1-7.2,5.1-9.3c6.2-3.3,12.1-7.2,18.1-10.9
			c9.6-6,18.8-12.6,28.7-17.9c19.9-10.4,39.9-20.5,60.3-29.9c19.7-9,40.5-15.3,61.6-20.1c9.8-2.2,19.8-3.7,29.7-5.4
			c22.8-4,45.9-5.4,69-4.5c11.7,0.4,23.4,2,35,3.6c9.5,1.3,18.9,2.8,28.2,5c13.5,3.2,27.1,6.4,40.3,10.7
			c14.6,4.7,28.9,10.4,43.1,16.3c8.9,3.6,17.4,8.2,26,12.6c10.8,5.5,21.5,11.1,32.1,17.1c7.3,4.1,14.3,8.8,21.4,13.3
			c6.4,4.1,12.5,8.5,19,12.3c3.5,2.1,4.7,4.8,4.7,8.7c-0.1,18.5,0,37.1,0,55.6c0,40.6-0.2,81.2-0.2,121.9
			c0.1,60.9,0.4,121.9,0.6,182.8c0,2.5,0.4,5.5-0.8,7.3c-1,1.4-4.2,1.7-6.4,1.8c-8.4,0.6-14.5,5.8-21.2,9.9
			c-15,9.3-29.6,19.4-45.2,27.7c-16.8,8.9-34.4,16.2-51.8,23.9c-15.6,7-32.1,11.7-48.6,15.7c-18.5,4.5-37.1,8.2-56,10.7
			c-21.4,2.8-42.6,2.7-63.9,0.7c-14.2-1.3-28.3-3.5-42.2-6.3c-21.3-4.3-42.2-10.3-62.5-18.2c-22.1-8.5-43.4-18.5-63.3-31.4
			c-13.4-8.6-26.7-17.4-40.3-25.5c-5.2-3.1-11.2-4.7-17-6.6c-2.5-0.8-3.7-1.8-3.7-4.5c0.1-8.2,0.1-16.5,0.1-24.7
			c0-53.5,0-107.1,0-160.6C381.4,647.1,381.4,647.1,381.5,647.1z M421.3,643.3c0.1,0,0.2,0,0.3,0c0,42.2,0,84.4,0,126.6
			c0,17.7-0.2,35.4-0.2,53.1c0,0.9,0.8,2.2,1.6,2.7c6.9,4.9,13.8,10.1,21,14.6c22.7,14.2,46.1,27,71.4,36.3
			c35.1,12.9,71.1,20.8,108.4,22.8c28,1.5,55.8-0.8,83.3-6.4c22.8-4.7,44.9-11.6,66.4-20.5c29.1-12,56.8-26.4,82.9-43.9
			c3.7-2.5,5.2-5.1,5.2-9.6c0-42.2,0.4-84.4,0.4-126.6c0-49.2-0.1-98.3-0.3-147.5c-0.1-26-0.5-52.1-0.6-78.1c0-3.1-0.8-5.3-3.8-6.8
			c-22.2-11.4-44-23.7-66.6-34.4c-31.6-15-65-24.5-99.5-30c-23.3-3.8-46.8-5.7-70.3-3.7c-40.5,3.5-79.7,12.7-117.7,27.3
			c-26.3,10.1-50.9,23.7-75.2,37.9c-4.3,2.5-5.9,5.3-5.9,10.3C422.1,526.1,421.7,584.7,421.3,643.3z"/>
		<path class="st0" d="M499.6,673.5c-0.2,2.6-0.5,4.9-0.6,7.3c-0.1,7.6,0,15.2,0,22.8c0,3,1.4,4.2,4.4,4.2c18,0,36,0.4,54,0.2
			c8.5-0.1,9.9-1.7,10-10.3c0.1-7.6-0.2-15.2-0.6-22.8c-0.3-5.8-3.5-11.1-11.9-11.2c-13.8-0.3-27.8-0.3-41.5-1.9
			c-25.2-2.8-45-15.3-59.3-36.3c-3.8-5.6-5.9-12-6-18.8c0-14.5-0.2-28.9,0.3-43.4c0.5-13.9,13.4-30.8,32.2-31.3
			c13.5-0.4,27.1-0.7,40.6-0.7c93.4-0.2,186.9-0.3,280.3-0.4c11.2,0,22.5-0.1,33.7-0.1c1.1,0,2.3,0,3.7,0c0,15.4,0,30.5,0,46.2
			c-1.3,0-2.6,0-3.9,0c-61.7-0.2-123.3-0.4-185-0.6c-2.4,0-4.8-0.3-7.2-0.3c-0.7,0-1.6,0.2-1.9,0.6c-0.3,0.4,0,1.4,0.4,1.9
			c10.9,13.4,21.8,26.8,32.8,40.1c3,3.7,6.8,5.4,11.7,5.4c41.2-0.1,82.5,0,123.7-0.1c9.4,0,18.7-0.3,28.1-0.5c0.8,0,1.6,0.1,2.7,0.1
			c0,13.5,0,26.9,0,40.4c-41.8,0-83.5,0-126.1,0c1.8,2.5,3,4.4,4.5,6.2c14.7,17.5,29.4,34.8,44,52.4c8.6,10.4,16.9,21.1,25.5,31.5
			c3.8,4.6,8.1,8.7,12.2,13c2.1,2.2,2.9,4.3,2.1,7.8c-3.6,16.2-14.6,25.3-29,31.5c-10.6,4.6-21.9,6-33.3,6.2
			c-38.5,0.4-77.1,0.7-115.6,0.8c-55,0.1-110,0-165,0c-4.4,0-4.5,0-4.5-4.3c0-10.7,0-21.5-0.1-32.2c0-2.4,0.9-2.8,2.9-2.8
			c6.2,0.1,12.5,0,18.7,0c73.4-0.2,146.9-0.4,220.3-0.5c11.6,0,23.1,0.4,34.7,0.6c0.9,0,1.8-0.1,2.7-0.1c0.3-0.4,0.5-0.7,0.8-1.1
			c-0.7-0.3-1.4-0.4-2-0.8c-14.2-10.4-25.4-23.6-35.9-37.5c-10.8-14.4-22.4-28.2-33.6-42.3c-9.9-12.5-19.8-24.9-29.7-37.4
			c-9.6-12.1-19.2-24.1-28.7-36.2c-6.9-8.9-13.5-18-20.4-26.8c-2.4-3-5.3-5.6-8.1-8.2c-5.2-4.6-11.3-7.1-18.2-7.2
			c-19.2-0.2-38.3-0.3-57.5-0.4c-3.5,0-7.1,0-10.6,0c-2.1,0-3.1,1-2.8,3.1c2.5,17.2,8.7,32.5,23.3,43.3c3.4,2.5,7.1,3.4,11.1,3.6
			c12.2,0.4,24.4,0.7,36.5,1.3c9.1,0.4,18.3,1,27.4,1.9c9,0.9,23.6,15.5,23.5,26.7c-0.2,14.4,0.7,28.7,0.8,43.1
			c0.2,20.3-11.3,41.6-38.9,44.2c-28.1,2.6-56.2,2.3-84.3,0.9c-15.5-0.8-27-9-35.3-21.7c-1.9-2.9-3.2-6.8-3.2-10.2
			c-0.2-12.2,0.3-24.3,0.5-36.5c0-1.5,0.5-2.2,2.2-2.2c14.9,0,29.8,0,44.7,0C497.1,673.1,498.2,673.3,499.6,673.5z M673.7,559.9
			c0-0.3,0.1-0.5,0.1-0.8c6.3-0.3,12.6-0.4,18.9-1.2c2.5-0.3,5-1.9,7.3-3.3c1.9-1.1,1.9-2.6,0.2-4.3c-1.2-1.2-2.2-2.8-2.5-4.4
			c-0.4-2-1.4-2.9-3.2-3.3c-3.4-0.8-6.8-1.8-10.2-2.6c-5.1-1.2-10.2-2.4-15.4-0.9c-0.8,0.2-1.7,0.2-2.5,0.2c-4.5,0.4-9,0.9-13.5,1.3
			c-2,0.2-3,1.3-2.9,3.3c0,1.1,0,2.3,0,3.4c0.2,3.3,1.7,4.9,5.1,5.1c3,0.2,4.9,1.5,5.5,4.5c0.4,2,1.5,2.5,3.4,1.5
			c0.8-0.4,2-0.6,2.9-0.4C669.2,558.6,671.4,559.3,673.7,559.9z"/>
	</g>
</g>
</svg>
